<svg width="1352" height="132" viewBox="0 0 1352 132" fill="none" xmlns="http://www.w3.org/2000/svg">
<path d="M518.376 1.52413L482.643 1.40688C491.939 26.7268 503.286 44.6132 518.376 64.0828L520.813 67.2277L518.73 70.6181C508.641 87.0412 498.861 107.029 491.585 126.439H530.623L547.831 96.74L552.623 99.0262C557.107 101.165 561.359 103.777 565.313 106.206L565.601 106.382C569.732 108.92 573.559 111.254 577.511 113.109L577.515 113.111C600.844 124.085 624.846 127.025 650.054 126.553V1.52413H618.204L618.003 70.7137L617.368 89.0115L610.469 87.2846C581.323 79.9895 560.798 67.1158 546.297 51.0439C531.841 35.023 523.674 21.8249 518.671 3.00211L518.376 1.52413Z" fill="black"/>
<path d="M518.376 1.52413L482.643 1.40688C491.939 26.7268 503.286 44.6132 518.376 64.0828L520.813 67.2277L518.73 70.6181C508.641 87.0412 498.861 107.029 491.585 126.439H530.623L547.831 96.74L552.623 99.0262C557.107 101.165 561.359 103.777 565.313 106.206L565.601 106.382C569.732 108.92 573.559 111.254 577.511 113.109L577.515 113.111C600.844 124.085 624.846 127.025 650.054 126.553V1.52413H618.204L618.003 70.7137L617.368 89.0115L610.469 87.2846C581.323 79.9895 560.798 67.1158 546.297 51.0439C531.841 35.023 523.674 21.8249 518.671 3.00211L518.376 1.52413Z" fill="#E4A867"/>
<path d="M810.495 1.64155L810.2 3.11953C805.196 21.9424 797.029 35.023 782.574 51.0439C768.072 67.1158 747.547 79.9895 718.402 87.2846L711.502 89.0115L710.867 70.7137L710.667 1.52413H678.817V126.553C704.025 127.025 728.027 124.085 751.356 113.111L751.36 113.109C759.62 109.232 764.505 106.35 775.666 99.3458L780.714 96.1778L798.248 126.439H837.286C830.01 107.029 820.229 87.0412 810.14 70.6181L808.057 67.2277L810.495 64.0828C825.585 44.6132 836.932 26.8442 846.227 1.5243L810.495 1.64155Z" fill="black"/>
<path fill-rule="evenodd" clip-rule="evenodd" d="M1172.39 118.141C1172.39 122.057 1172.58 125.667 1173.04 128.844H1142.92C1142.9 128.41 1142.89 127.928 1142.89 127.394V111.258C1142.89 102.485 1141.12 94.8667 1136.6 89.502L1136.59 89.4875L1136.58 89.473C1131.7 83.7631 1124.08 81.6206 1115.44 81.6206H1074.5L1070.4 84.4429V128.935H1041.03V2.60013H1132.64C1147.06 2.60013 1156.82 5.46034 1162.88 10.2212C1168.68 14.7745 1171.95 21.747 1171.95 32.2191V34.2703C1171.95 38.398 1171.33 41.962 1170.18 44.9681L1170.17 44.9895C1168.93 48.2477 1167.43 50.59 1165.8 52.2078L1165.78 52.2275L1165.76 52.2474C1163.73 54.3023 1161.77 55.8251 1159.95 56.9321C1158.06 58.0761 1156.19 58.928 1154.36 59.5104L1136.22 65.2775L1154.51 70.5223C1160.11 72.1279 1164.38 75.1864 1167.53 79.6869C1170.62 84.1059 1172.39 90.0298 1172.39 97.766V118.141ZM1070.4 24.6431V59.8511H1123.12C1128.07 59.8511 1132.85 58.6629 1136.38 55.287C1139.96 51.8659 1141.26 47.1518 1141.26 42.2471V42.0648C1141.26 37.187 1139.95 32.5014 1136.34 29.1157C1132.81 25.7929 1128.04 24.6431 1123.12 24.6431H1070.4Z" fill="black"/>
<path fill-rule="evenodd" clip-rule="evenodd" d="M132.819 90.7412C132.819 85.7292 132.105 81.3847 130.818 77.7267C129.454 73.9756 127.763 71.3566 125.881 69.5704C123.407 67.2223 121.18 65.4993 119.204 64.3105L119.184 64.2985L119.164 64.2862C117.26 63.1201 115.071 62.1646 112.632 61.4161L100.235 55.7705L112.712 50.393C115.922 49.4586 119.169 47.3146 122.432 43.5108C125.093 40.4083 126.734 35.9031 126.734 29.2966V27.291C126.734 19.7112 124.302 13.856 119.598 9.24742C115.317 5.05297 107.208 2.23029 93.5064 2.23029H0V126.423H94.0356C108.153 126.423 117.673 123.295 123.63 118.047C129.448 112.922 132.819 104.921 132.819 92.9291V90.7412ZM28.798 21.5839V52.2337H81.336C85.6411 52.2337 89.9501 51.3085 93.214 48.4329C96.6185 45.4334 97.8481 41.2465 97.8481 37V36.6353C97.8481 32.4192 96.5951 28.2698 93.1749 25.3108C89.9148 22.4904 85.6247 21.5839 81.336 21.5839H28.798ZM28.798 71.1771V106.02H83.8936C88.847 106.02 93.6373 104.878 97.1873 101.558C100.811 98.1704 102.125 93.477 102.125 88.5988V88.0518C102.125 83.2765 100.764 78.6874 97.0856 75.4098C93.5352 72.2459 88.7868 71.1771 83.8936 71.1771H28.798Z" fill="black"/>
<path fill-rule="evenodd" clip-rule="evenodd" d="M132.819 90.7412C132.819 85.7292 132.105 81.3847 130.818 77.7267C129.454 73.9756 127.763 71.3566 125.881 69.5704C123.407 67.2223 121.18 65.4993 119.204 64.3105L119.184 64.2985L119.164 64.2862C117.26 63.1201 115.071 62.1646 112.632 61.4161L100.235 55.7705L112.712 50.393C115.922 49.4586 119.169 47.3146 122.432 43.5108C125.093 40.4083 126.734 35.9031 126.734 29.2966V27.291C126.734 19.7112 124.302 13.856 119.598 9.24742C115.317 5.05297 107.208 2.23029 93.5064 2.23029H0V126.423H94.0356C108.153 126.423 117.673 123.295 123.63 118.047C129.448 112.922 132.819 104.921 132.819 92.9291V90.7412ZM28.798 21.5839V52.2337H81.336C85.6411 52.2337 89.9501 51.3085 93.214 48.4329C96.6185 45.4334 97.8481 41.2465 97.8481 37V36.6353C97.8481 32.4192 96.5951 28.2698 93.1749 25.3108C89.9148 22.4904 85.6247 21.5839 81.336 21.5839H28.798ZM28.798 71.1771V106.02H83.8936C88.847 106.02 93.6373 104.878 97.1873 101.558C100.811 98.1704 102.125 93.477 102.125 88.5988V88.0518C102.125 83.2765 100.764 78.6874 97.0856 75.4098C93.5352 72.2459 88.7868 71.1771 83.8936 71.1771H28.798Z" fill="#E4A867"/>
<path d="M347.457 126.468H318.968V2.23029H355.546L425.326 90.1496V2.23029H453.816V126.468H422.067L347.457 33.5996V126.468Z" fill="black"/>
<path d="M347.457 126.468H318.968V2.23029H355.546L425.326 90.1496V2.23029H453.816V126.468H422.067L347.457 33.5996V126.468Z" fill="#E4A867"/>
<path fill-rule="evenodd" clip-rule="evenodd" d="M177.262 126.468H148.816L196.6 2.23029H242.97L293.458 126.468H261.846L253.6 104.589H185.332L177.262 126.468ZM245.08 82.1355L218.95 13.2655L193.47 82.1355H245.08Z" fill="black"/>
<path fill-rule="evenodd" clip-rule="evenodd" d="M177.262 126.468H148.816L196.6 2.23029H242.97L293.458 126.468H261.846L253.6 104.589H185.332L177.262 126.468ZM245.08 82.1355L218.95 13.2655L193.47 82.1355H245.08Z" fill="#E4A867"/>
<path fill-rule="evenodd" clip-rule="evenodd" d="M974.353 106.689H905.151L896.949 128.933H867.886L916.463 2.64414H963.628L1014.95 128.933H982.688L974.353 106.689ZM962.604 75.9406L965.771 83.7345H957.269H913.42L939.167 14.1875L962.604 75.9406Z" fill="black"/>
<path fill-rule="evenodd" clip-rule="evenodd" d="M1322.09 8.37309L1322.1 8.37735L1322.1 8.38158C1326.91 10.7638 1331.05 13.7008 1334.63 17.1522C1338.31 20.7518 1341.12 24.2622 1343.09 27.6668C1345.15 31.2224 1346.83 35.1428 1348.12 39.4032C1349.45 43.8138 1350.25 47.7126 1350.65 51.1536C1351.06 54.7459 1351.27 58.5365 1351.27 62.5291V68.0901C1351.27 72.0828 1351.06 75.8734 1350.65 79.4656C1350.25 82.9177 1349.44 86.8721 1348.12 91.3367C1346.81 95.731 1345.16 99.7499 1343.14 103.338C1341.22 106.776 1338.45 110.314 1334.7 113.98C1331.07 117.531 1326.92 120.518 1322.14 122.948L1322.12 122.957L1322.11 122.966C1317.4 125.398 1311.4 127.442 1303.9 129.009C1296.49 130.559 1288.2 131.394 1278.93 131.394H1272.45C1263.16 131.394 1254.88 130.6 1247.51 129.016C1239.99 127.4 1233.93 125.352 1229.21 122.953C1224.36 120.467 1220.17 117.476 1216.6 113.993C1212.86 110.298 1210.07 106.756 1208.15 103.338C1206.12 99.7125 1204.44 95.7502 1203.19 91.3981C1201.88 86.7969 1201.04 82.8818 1200.64 79.4656C1200.23 75.8734 1200.02 72.0828 1200.02 68.0901V62.5291C1200.02 58.5365 1200.23 54.7459 1200.64 51.1536C1201.04 47.7088 1201.84 43.8051 1203.17 39.3883C1204.47 35.0547 1206.12 31.1384 1208.12 27.6499L1208.13 27.6374L1208.14 27.625C1210.06 24.2351 1212.81 20.7493 1216.54 17.1873L1216.55 17.1764L1216.56 17.1655C1220.12 13.7341 1224.34 10.7842 1229.14 8.38158C1233.94 6.00271 1240.03 3.95082 1247.48 2.38393L1247.5 2.38063L1247.52 2.37723C1254.84 0.794403 1263.15 0 1272.45 0H1278.98C1288.18 0 1296.4 0.793345 1303.73 2.37723C1311.25 4.00086 1317.36 6.01317 1322.09 8.37309ZM1311.58 38.5773L1311.57 38.5624L1311.55 38.5476C1307.99 34.2067 1302.95 31.0721 1296.95 28.8324L1296.93 28.825L1296.91 28.8176C1290.75 26.5729 1283.61 25.5072 1275.62 25.5072C1267.66 25.5072 1260.26 26.5659 1254.08 28.8176C1247.99 31.0342 1243 34.2404 1239.49 38.5831C1236.42 42.3847 1234.13 46.4398 1232.78 50.7974C1231.49 54.8997 1230.85 59.3058 1230.85 63.8966V66.1301C1230.85 70.7327 1231.5 75.192 1232.83 79.4333C1234.22 83.8379 1236.51 87.9746 1239.51 91.9361L1239.52 91.9504L1239.53 91.9646C1243.03 96.5286 1248.07 99.8967 1254.19 102.264C1260.44 104.678 1267.61 105.796 1275.62 105.796C1283.61 105.796 1290.77 104.731 1297.02 102.37C1303.1 100.068 1308.17 96.8069 1311.7 92.2669C1314.76 88.3223 1316.99 84.1841 1318.4 79.8581L1318.41 79.8281L1318.42 79.798C1319.75 75.5567 1320.4 71.0974 1320.4 66.4948V63.8966C1320.4 59.3 1319.75 54.8616 1318.4 50.7149C1316.99 46.4212 1314.67 42.3927 1311.58 38.5773Z" fill="black"/>
</svg>
