<svg width="594" height="237" viewBox="0 0 594 237" fill="none" xmlns="http://www.w3.org/2000/svg">
<path d="M528.219 0.211561V2.87835C519.19 36.8413 504.455 70.8732 478.372 99.7804C452.206 128.78 415.172 152.008 362.583 165.171L350.134 168.287L348.988 135.272L348.626 10.4294H291.158V236.025C336.642 236.877 379.95 231.572 422.043 211.772L422.051 211.768C436.956 204.771 445.769 199.573 465.908 186.934L475.015 181.218L506.653 235.819H577.091C563.963 200.797 546.315 164.732 528.111 135.099L524.353 128.982L528.751 123.307C555.979 88.1772 576.453 45.6859 593.225 0L528.219 0.211561Z" fill="white"/>
<path fill-rule="evenodd" clip-rule="evenodd" d="M239.653 171.408C239.653 162.365 238.363 154.526 236.041 147.926C233.58 141.157 230.53 136.432 227.134 133.209C222.669 128.972 218.651 125.863 215.085 123.718L215.049 123.696L215.013 123.674C211.578 121.57 207.628 119.846 203.227 118.495L170.034 108.309L203.372 98.606C209.165 96.92 215.023 93.0514 220.91 86.188C225.711 80.59 228.673 72.4611 228.673 60.5407V56.9219C228.673 43.2452 224.284 32.6805 215.796 24.365C208.071 16.7967 193.441 11.7036 168.718 11.7036H0V235.79H169.673C195.145 235.79 212.323 230.147 223.071 220.678C233.569 211.429 239.653 196.993 239.653 175.356V171.408ZM51.9616 46.6243V101.927H146.759C154.527 101.927 162.301 100.258 168.191 95.0692C174.333 89.657 176.552 82.1025 176.552 74.4403V73.7823C176.552 66.175 174.291 58.6879 168.12 53.3488C162.238 48.2598 154.497 46.6243 146.759 46.6243H51.9616ZM51.9616 136.108V198.977H151.373C160.311 198.977 168.954 196.915 175.36 190.926C181.898 184.813 184.27 176.345 184.27 167.543V166.556C184.27 157.939 181.813 149.659 175.176 143.745C168.77 138.036 160.202 136.108 151.373 136.108H51.9616Z" fill="white"/>
<path fill-rule="evenodd" clip-rule="evenodd" d="M239.653 171.408C239.653 162.365 238.363 154.526 236.041 147.926C233.58 141.157 230.53 136.432 227.134 133.209C222.669 128.972 218.651 125.863 215.085 123.718L215.049 123.696L215.013 123.674C211.578 121.57 207.628 119.846 203.227 118.495L170.034 108.309L203.372 98.606C209.165 96.92 215.023 93.0514 220.91 86.188C225.711 80.59 228.673 72.4611 228.673 60.5407V56.9219C228.673 43.2452 224.284 32.6805 215.796 24.365C208.071 16.7967 193.441 11.7036 168.718 11.7036H0V235.79H169.673C195.145 235.79 212.323 230.147 223.071 220.678C233.569 211.429 239.653 196.993 239.653 175.356V171.408ZM51.9616 46.6243V101.927H146.759C154.527 101.927 162.301 100.258 168.191 95.0692C174.333 89.657 176.552 82.1025 176.552 74.4403V73.7823C176.552 66.175 174.291 58.6879 168.12 53.3488C162.238 48.2598 154.497 46.6243 146.759 46.6243H51.9616ZM51.9616 136.108V198.977H151.373C160.311 198.977 168.954 196.915 175.36 190.926C181.898 184.813 184.27 176.345 184.27 167.543V166.556C184.27 157.939 181.813 149.659 175.176 143.745C168.77 138.036 160.202 136.108 151.373 136.108H51.9616Z" fill="url(#paint0_linear_3877_16683)"/>
<defs>
<linearGradient id="paint0_linear_3877_16683" x1="1363.56" y1="-294.517" x2="-26.234" y2="-153.91" gradientUnits="userSpaceOnUse">
<stop stop-color="#C68B4A"/>
<stop offset="1" stop-color="#FEE0AE"/>
</linearGradient>
</defs>
</svg>
